{
	"asset":{
		"generator":"Khronos glTF Blender I/O v4.2.60",
		"version":"2.0"
	},
	"scene":0,
	"scenes":[
		{
			"name":"Scene",
			"nodes":[
				0
			]
		}
	],
	"nodes":[
		{
			"mesh":0,
			"name":"elevator",
			"translation":[
				1.2747999429702759,
				0,
				-0.2354438155889511
			]
		}
	],
	"materials":[
		{
			"doubleSided":true,
			"name":"M_Model",
			"pbrMetallicRoughness":{
				"baseColorFactor":[
					0.800000011920929,
					0.800000011920929,
					0.800000011920929,
					1
				],
				"metallicFactor":0,
				"roughnessFactor":0.5
			}
		}
	],
	"meshes":[
		{
			"name":"102/7457.014",
			"primitives":[
				{
					"attributes":{
						"POSITION":0,
						"NORMAL":1
					},
					"indices":2,
					"material":0
				}
			]
		}
	],
	"accessors":[
		{
			"bufferView":0,
			"componentType":5126,
			"count":2088,
			"max":[
				0.47400009632110596,
				2.2039999961853027,
				0.08544382452964783
			],
			"min":[
				-0.8999999761581421,
				-0.029999999329447746,
				-1.433556079864502
			],
			"type":"VEC3"
		},
		{
			"bufferView":1,
			"componentType":5126,
			"count":2088,
			"type":"VEC3"
		},
		{
			"bufferView":2,
			"componentType":5123,
			"count":3864,
			"type":"SCALAR"
		}
	],
	"bufferViews":[
		{
			"buffer":0,
			"byteLength":25056,
			"byteOffset":0,
			"target":34962
		},
		{
			"buffer":0,
			"byteLength":25056,
			"byteOffset":25056,
			"target":34962
		},
		{
			"buffer":0,
			"byteLength":7728,
			"byteOffset":50112,
			"target":34963
		}
	],
	"buffers":[
		{
			"byteLength":57840,
			"uri":"elevator.bin"
		}
	]
}
